PathFileType	4	(X/Y/Z)	C:/Users/beibeiliu/ov580/test_trc/User2\sequence.5_training_dense_right.trc
DataRate	CameraRate	NumFrames	NumMarkers	Units	OrigDataRate	OrigDataStartFrame	OrigNumFrames
120	120	10	19	mm	120	53	417
Frame#	Time	ThumbCMC			ThumbMCP			ThumbIP			ThumbTip			IndexMCP			IndexPIP			IndexTip			MiddleMCP			MiddlePIP			MiddleTip			RingMCP			RingPIP			RingTip			PinkyMCP			PinkyPIP			PinkyTip			BackHand1			BackHand2			BackHand3	
		X0	Y0	Z0	X1	Y1	Z1	X2	Y2	Z2	X3	Y3	Z3	X4	Y4	Z4	X5	Y5	Z5	X6	Y6	Z6	X7	Y7	Z7	X8	Y8	Z8	X9	Y9	Z9	X10	Y10	Z10	X11	Y11	Z11	X12	Y12	Z12	X13	Y13	Z13	X14	Y14	Z14	X15	Y15	Z15	X16	Y16	Z16	X17	Y17	Z17	X18	Y18	Z18	
52	0.433333	81.3083	10.9451	84.9095	70.716	-18.8816	62.1492	74.9612	-40.9631	36.2565	83.0364	-57.1283	17.1422	100.89	8.91499	1.61616	97.2485	-7.00237	-21.428	102.537	-28.7506	-41.8043	120.992	-3.56443	-1.37099	110.451	-37.1105	-6.06848	104.504	-59.2196	28.1845	136.31	-21.2724	10.1656	124.995	-49.3305	17.9998	113.342	-51.7859	53.7228	151.813	-25.6615	26.7482	133.628	-50.9231	38.6448	120.694	-41.1963	66.7128	149.887	26.77	55.4251	148.266	36.2851	91.9006	115.854	39.2497	73.0862	
53	0.441667	83.4166	10.2923	85.0326	70.7682	-19.3625	62.5537	73.973	-42.3689	38.4248	87.1638	-58.5465	14.3588	102.221	9.07948	4.14067	102.718	-8.95966	-16.7081	104.576	-31.4399	-35.3682	120.632	-2.68676	-0.010256	114.843	-42.5457	-4.4392	107.659	-60.923	27.6958	140.661	-23.8082	10.6686	129.252	-50.8653	18.9622	111.801	-49.665	53.8319	156.549	-26.7139	28.169	139.84	-52.8369	40.4069	121.943	-41.9747	65.4165	151.26	27.4987	57.6506	150.291	36.684	90.0935	114.405	41.2811	71.8477	
54	0.45	88.2422	9.98223	85.0259	76.3947	-17.5998	64.2685	77.4424	-41.482	35.0712	87.4529	-57.1343	18.3679	105.342	8.60223	0.387086	102.751	-9.02167	-22.3056	104.621	-27.5283	-38.6047	123.716	-3.82962	-1.49304	116.183	-41.7973	-4.22056	106.061	-59.2121	24.9407	139.657	-22.6761	11.0484	132.284	-50.8649	19.9314	116.193	-51.4307	51.906	156.11	-28.936	26.5694	137.529	-51.1194	41.7162	124.384	-38.4081	71.12	150.102	26.566	54.8878	153.569	35.9676	90.6933	116.485	41.2526	69.2807	
55	0.458333	91.0194	10.5105	83.5855	79.6962	-16.3823	60.0152	78.3614	-40.2784	36.6751	93.0818	-55.3609	15.482	104.881	12.8383	1.04707	106.164	-3.13069	-21.9578	106.739	-19.2976	-41.6028	126.541	-2.63223	-0.669069	118.53	-38.484	-5.40712	108.779	-58.9238	29.0521	145.799	-20.3215	12.7116	127.738	-49.4065	20.0895	119.01	-51.9992	54.4019	158.526	-25.8773	27.5845	140.183	-52.2952	42.4465	123.396	-39.5512	66.4769	154.521	27.632	54.5783	155.104	35.3927	91.4147	116.675	41.2267	70.3798	
56	0.466667	91.6252	11.0584	82.8055	79.631	-17.7731	60.2882	81.3709	-39.4965	34.2171	92.8568	-55.4266	15.1343	109.002	15.5059	0.885251	105.541	4.93852	-21.4079	107.651	-9.94814	-47.7709	128.518	-1.8838	-0.246707	122.71	-36.998	-5.80972	109.829	-57.403	26.519	143.965	-18.6683	12.0891	134.243	-51.0606	19.2276	121.379	-52.8189	51.7045	158.007	-25.9619	26.7948	142.091	-52.7813	40.8191	128.45	-41.1317	68.6438	157.055	26.1296	57.7951	156.529	35.9871	90.6161	121.914	39.9253	70.5084	
57	0.475	91.983	10.6875	83.5072	80.0177	-18.0103	57.6477	80.1809	-42.5907	30.6673	93.8283	-55.3056	17.471	108.383	20.2884	2.40499	109.685	11.2757	-24.204	111.751	-0.428632	-50.765	132.199	-3.52473	-0.101312	121.437	-40.1497	-5.41699	112.209	-57.102	27.1958	148.65	-20.3459	12.4566	135.03	-50.2149	16.7522	117.057	-51.5881	49.7242	162.033	-30.8106	26.5522	139.995	-50.8262	38.1633	125.255	-39.1848	68.5872	155.671	26.7029	57.4786	158.781	33.9668	87.9831	124.602	39.4959	70.5269	
58	0.483333	94.476	10.6354	80.0415	81.0366	-18.263	60.3973	79.0204	-41.8062	34.0293	97.6737	-56.2008	15.1695	112.831	22.4265	2.85488	109.496	18.315	-26.6452	112.186	10.7798	-51.6105	134.011	-1.73726	0.320823	125.767	-41.3146	-4.68445	108.862	-55.5749	28.8296	146.386	-19.1537	10.1795	136.889	-50.9527	18.4272	120.184	-52.5364	47.6647	164.014	-29.6775	26.9407	142.185	-52.3001	39.3582	127.497	-41.7012	67.2853	160.606	23.8834	58.8366	161.065	33.9	93.0543	126.268	40.064	72.193	
59	0.491667	97.0408	10.5136	80.5464	80.3907	-18.0003	58.5629	87.3265	-40.5204	31.6528	99.0683	-55.9539	15.4363	112.88	25.3169	2.36731	115.955	20.0993	-24.6705	121.404	13.1684	-52.2431	135.578	-3.71748	-2.67163	126.49	-39.4507	-6.45496	114.031	-55.4009	25.5056	151.64	-21.0326	9.79481	138.953	-51.1965	16.7737	124.549	-53.2208	48.5709	167.238	-28.1452	27.3709	146.293	-52.9769	38.7876	130.575	-40.9589	63.1501	160.897	23.6286	54.183	162.43	34.0452	92.3149	129.335	40.7033	72.4118	
60	0.5	95.7537	11.5246	81.3615	87.8481	-15.9532	57.7914	86.964	-40.1994	31.1329	101.083	-57.0366	11.5722	121.758	24.2723	-1.00254	121.223	17.0081	-29.758	125.212	8.28611	-55.6818	138.293	0.0608021	-1.14484	127.645	-35.8116	-8.25935	116.897	-55.088	30.1606	154.711	-24.0669	9.37487	141.781	-49.833	17.7858	126.303	-51.6426	50.7479	170.627	-29.068	28.8478	143.994	-49.6486	39.0263	134.108	-42.6258	65.8951	166.262	24.8834	55.6977	165.431	34.2605	90.855	131.777	41.138	68.101	
61	0.508333	99.0255	10.2768	77.1353	85.1834	-18.6595	57.8771	88.7069	-42.9441	29.3259	106.506	-55.7804	14.2099	122.745	20.0368	1.8711	129.223	6.66045	-27.3231	128.865	-6.0009	-49.7257	144.93	-2.97279	1.25106	131.168	-39.4927	-6.6712	117.995	-55.4866	26.3873	155.344	-21.9152	11.0624	144.211	-49.5024	16.4644	128.867	-52.6216	50.1039	169.306	-29.9151	27.3742	151.549	-51.8821	39.8886	132.793	-38.0712	68.2591	167.659	22.8628	55.5484	166.458	33.4097	90.2647	129.915	40.5144	69.1188	
